<svg width="276" height="87" viewBox="0 0 276 87" fill="none" xmlns="http://www.w3.org/2000/svg">
<g filter="url(#filter0_di_1_951)">
<circle cx="233.556" cy="37.1688" r="16.2074" fill="url(#paint0_linear_1_951)"/>
</g>
<rect x="230.033" y="28.0083" width="7.04668" height="18.3214" rx="1.057" fill="white"/>
<rect x="242.717" y="33.6455" width="7.04668" height="18.3214" rx="1.057" transform="rotate(90 242.717 33.6455)" fill="white"/>
<path d="M11.0929 74.2461V61.3666H23.4537V74.2461H30.4553V42.2636H23.4537V54.8837H11.0929V42.2636H4.09134V74.2461H11.0929ZM46.3027 74.8079C52.2238 74.8079 56.5026 71.7394 57.2805 66.942H51.1866C50.7111 68.4979 48.9391 69.4055 46.4324 69.4055C43.4935 69.4055 41.8943 68.0657 41.5054 65.2132L57.1941 65.1268V63.4412C57.1941 56.3964 52.9586 51.9448 46.1731 51.9448C39.6469 51.9448 35.1089 56.6557 35.1089 63.398C35.1089 70.0538 39.7766 74.8079 46.3027 74.8079ZM46.2163 57.3472C48.8959 57.3472 50.5815 58.8167 50.5815 61.1073H41.5918C42.1104 58.5141 43.5799 57.3472 46.2163 57.3472ZM67.4506 74.8079C70.6921 74.8079 73.5446 73.3817 74.2361 71.3936L74.6683 74.2461H80.5462V61.626C80.5462 55.4456 77.0022 51.9448 70.7353 51.9448C64.5549 51.9448 60.5355 55.143 60.5355 60.0268H66.0676C66.0676 58.082 67.5803 57.0015 70.3896 57.0015C72.7667 57.0015 74.0632 58.1252 74.0632 60.2429V60.5887L68.0125 61.0641C62.8261 61.4531 60.0169 63.9166 60.0169 67.8928C60.0169 72.1283 62.8694 74.8079 67.4506 74.8079ZM69.7845 69.8809C67.7532 69.8809 66.8023 69.1462 66.8023 67.5903C66.8023 66.2072 67.8396 65.5589 70.7353 65.2996L74.1065 64.9971V66.164C74.1065 68.6275 72.3345 69.8809 69.7845 69.8809ZM91.9758 74.2461V41.6585H85.3199V74.2461H91.9758ZM105.699 74.2461V58.1684H109.805V52.6363H105.699V45.9372H99.0435V52.6363H94.9377V58.1684H99.0435V74.2461H105.699ZM119.452 74.2461V62.4039C119.452 59.7243 121.138 57.9955 123.774 57.9955C126.065 57.9955 127.578 59.7675 127.578 62.4904V74.2461H134.233V60.8912C134.233 55.2295 131.251 51.9448 126.108 51.9448C123.299 51.9448 120.835 53.0253 119.496 54.8837V41.6585H112.796V74.2461H119.452ZM136.856 84.6188C138.153 85.0078 139.665 85.2239 141.264 85.2239C145.068 85.2239 147.488 83.3654 149.303 78.957L160.281 52.6363H153.366L148.136 66.5098L143.425 52.6363H136.294L144.981 74.9808L144.592 76.0181C143.728 78.352 142.777 79.0435 140.53 79.0435H136.856V84.6188ZM170.629 74.2461V65.2996C170.629 61.7988 170.586 59.1192 170.197 56.7421L176.939 74.2461H183.336L190.121 56.7421C189.775 59.1192 189.775 60.6319 189.775 67.5471V74.2461H196.561V42.2636H189.689L180.137 66.1208L170.629 42.2636H163.844V74.2461H170.629ZM212.428 74.8079C218.349 74.8079 222.628 71.7394 223.406 66.942H217.312C216.837 68.4979 215.065 69.4055 212.558 69.4055C209.619 69.4055 208.02 68.0657 207.631 65.2132L223.32 65.1268V63.4412C223.32 56.3964 219.084 51.9448 212.299 51.9448C205.772 51.9448 201.234 56.6557 201.234 63.398C201.234 70.0538 205.902 74.8079 212.428 74.8079ZM212.342 57.3472C215.021 57.3472 216.707 58.8167 216.707 61.1073H207.717C208.236 58.5141 209.705 57.3472 212.342 57.3472Z" fill="url(#paint1_linear_1_951)"/>
<defs>
<filter id="filter0_di_1_951" x="191.687" y="0.702222" width="83.738" height="83.7379" filterUnits="userSpaceOnUse" color-interpolation-filters="sRGB">
<feFlood flood-opacity="0" result="BackgroundImageFix"/>
<feColorMatrix in="SourceAlpha" type="matrix" values="0 0 0 0 0 0 0 0 0 0 0 0 0 0 0 0 0 0 127 0" result="hardAlpha"/>
<feOffset dy="5.40245"/>
<feGaussianBlur stdDeviation="12.8308"/>
<feComposite in2="hardAlpha" operator="out"/>
<feColorMatrix type="matrix" values="0 0 0 0 0.0862745 0 0 0 0 0.470588 0 0 0 0 0.94902 0 0 0 0.2 0"/>
<feBlend mode="normal" in2="BackgroundImageFix" result="effect1_dropShadow_1_951"/>
<feBlend mode="normal" in="SourceGraphic" in2="effect1_dropShadow_1_951" result="shape"/>
<feColorMatrix in="SourceAlpha" type="matrix" values="0 0 0 0 0 0 0 0 0 0 0 0 0 0 0 0 0 0 127 0" result="hardAlpha"/>
<feOffset dy="5.40245"/>
<feGaussianBlur stdDeviation="2.70123"/>
<feComposite in2="hardAlpha" operator="arithmetic" k2="-1" k3="1"/>
<feColorMatrix type="matrix" values="0 0 0 0 0 0 0 0 0 0 0 0 0 0 0 0 0 0 0.12 0"/>
<feBlend mode="normal" in2="shape" result="effect2_innerShadow_1_951"/>
</filter>
<linearGradient id="paint0_linear_1_951" x1="214.825" y1="8.24976" x2="288.497" y2="16.176" gradientUnits="userSpaceOnUse">
<stop stop-color="#3A8EF6"/>
<stop offset="1" stop-color="#6F3AFA"/>
</linearGradient>
<linearGradient id="paint1_linear_1_951" x1="-16.6737" y1="5.50099" x2="422.497" y2="187.983" gradientUnits="userSpaceOnUse">
<stop stop-color="#3A8EF6"/>
<stop offset="1" stop-color="#6F3AFA"/>
</linearGradient>
</defs>
</svg>
